#tb 0: 1/44100
#media_type 0: audio
#codec_id 0: pcm_s16le
#sample_rate 0: 44100
#channel_layout_name 0: stereo
0,          0,          0,     4096,    16384, 0xe5e3ed5c
0,       4096,       4096,     4096,    16384, 0x298408d2
0,       8192,       8192,     4096,    16384, 0x7cd7f98f
0,      12288,      12288,     4096,    16384, 0xed5b0c0b
0,      16384,      16384,     4096,    16384, 0xf748ea98
0,      20480,      20480,     4096,    16384, 0x2bef026f
0,      24576,      24576,     4096,    16384, 0x9e84e12e
0,      28672,      28672,     4096,    16384, 0x9c881add
0,      32768,      32768,     4096,    16384, 0x081aec11
0,      36864,      36864,     4096,    16384, 0x2b5ac497
0,      40960,      40960,     4096,    16384, 0xbdaee67d
0,      45056,      45056,     4096,    16384, 0x20d2c2da
0,      49152,      49152,     4096,    16384, 0xb956e349
0,      53248,      53248,     4096,    16384, 0x95a1f811
0,      57344,      57344,     4096,    16384, 0xc262f67e
0,      61440,      61440,     4096,    16384, 0x56e5ec70
0,      65536,      65536,     4096,    16384, 0x559fd188
0,      69632,      69632,     4096,    16384, 0x318ee4e9
0,      73728,      73728,     4096,    16384, 0xa87c0dd5
0,      77824,      77824,     4096,    16384, 0xcb76fdf3
